<?xml version="1.0" encoding="UTF-8" standalone="no"?>
<svg
   width="272.90mm"
   height="387.50mm"
   viewBox="0.0 0.0 272.90 387.50"
   version="1.1"
   id="svg41"
   sodipodi:docname="boite2.svg"
   inkscape:version="1.2.2 (b0a84865, 2022-12-01)"
   xmlns:inkscape="http://www.inkscape.org/namespaces/inkscape"
   xmlns:sodipodi="http://sodipodi.sourceforge.net/DTD/sodipodi-0.dtd"
   xmlns="http://www.w3.org/2000/svg"
   xmlns:svg="http://www.w3.org/2000/svg"
   xmlns:rdf="http://www.w3.org/1999/02/22-rdf-syntax-ns#"
   xmlns:cc="http://creativecommons.org/ns#"
   xmlns:dc="http://purl.org/dc/elements/1.1/">
  <defs
     id="defs45" />
  <sodipodi:namedview
     id="namedview43"
     pagecolor="#ffffff"
     bordercolor="#000000"
     borderopacity="0.25"
     inkscape:showpageshadow="2"
     inkscape:pageopacity="0.0"
     inkscape:pagecheckerboard="0"
     inkscape:deskcolor="#d1d1d1"
     inkscape:document-units="mm"
     showgrid="false"
     inkscape:zoom="1.2714027"
     inkscape:cx="530.90968"
     inkscape:cy="588.32657"
     inkscape:window-width="1800"
     inkscape:window-height="1018"
     inkscape:window-x="0"
     inkscape:window-y="44"
     inkscape:window-maximized="0"
     inkscape:current-layer="svg41" />
  <!--
ClosedBox - Fully closed box


This box is more of a building block than a finished item.
Use a vector graphics program (like Inkscape) to add holes or adjust the base
plate.

See BasedBox for variant with a base.


Created with Boxes.py (https://festi.info/boxes.py)
Creation date: 2023-06-09 11:43:44
Command line (remove spaces between dashes): boxes ClosedBox - -y=150.0 - -thickness=5.0 - -burn=0
Url: http://www.festi.info/boxes.py/ClosedBox?FingerJoint_angle=90.0&FingerJoint_style=rectangular&FingerJoint_surroundingspaces=2.0&FingerJoint_bottom_lip=0.0&FingerJoint_edge_width=1.0&FingerJoint_extra_length=0.0&FingerJoint_finger=2.0&FingerJoint_play=0.0&FingerJoint_space=2.0&FingerJoint_width=1.0&x=100.0&y=150.0&h=100.0&outside=0&outside=1&thickness=5.0&format=svg&tabs=0.0&qr_code=0&debug=0&labels=0&labels=1&reference=100&inner_corners=loop&burn=0&language=fr&render=2
Url short: http://www.festi.info/boxes.py/ClosedBox?y=150.0&thickness=5.0&burn=0
SettingsUrl: http://www.festi.info/boxes.py/ClosedBox?FingerJoint_angle=90.0&FingerJoint_style=rectangular&FingerJoint_surroundingspaces=2.0&FingerJoint_bottom_lip=0.0&FingerJoint_edge_width=1.0&FingerJoint_extra_length=0.0&FingerJoint_finger=2.0&FingerJoint_play=0.0&FingerJoint_space=2.0&FingerJoint_width=1.0&x=100.0&y=150.0&h=100.0&outside=0&outside=1&thickness=5.0&format=svg&tabs=0.0&qr_code=0&debug=0&labels=0&labels=1&reference=100&inner_corners=loop&burn=0&language=fr&render=2
SettingsUrl short: http://www.festi.info/boxes.py/ClosedBox?y=150.0&thickness=5.0&burn=0
-->
  <title
     id="title2">ClosedBox</title>
  <metadata
     id="metadata4">
    <rdf:RDF>
      <cc:Work>
        <dc:title>ClosedBox</dc:title>
        <dc:date>2023-06-09 11:43:44</dc:date>
        <dc:source>http://www.festi.info/boxes.py/ClosedBox?FingerJoint_angle=90.0&amp;FingerJoint_style=rectangular&amp;FingerJoint_surroundingspaces=2.0&amp;FingerJoint_bottom_lip=0.0&amp;FingerJoint_edge_width=1.0&amp;FingerJoint_extra_length=0.0&amp;FingerJoint_finger=2.0&amp;FingerJoint_play=0.0&amp;FingerJoint_space=2.0&amp;FingerJoint_width=1.0&amp;x=100.0&amp;y=150.0&amp;h=100.0&amp;outside=0&amp;outside=1&amp;thickness=5.0&amp;format=svg&amp;tabs=0.0&amp;qr_code=0&amp;debug=0&amp;labels=0&amp;labels=1&amp;reference=100&amp;inner_corners=loop&amp;burn=0&amp;language=fr&amp;render=2</dc:source>
        <dc:source>http://www.festi.info/boxes.py/ClosedBox?y=150.0&amp;thickness=5.0&amp;burn=0</dc:source>
        <dc:description>Fully closed box

This box is more of a building block than a finished item.
Use a vector graphics program (like Inkscape) to add holes or adjust the base
plate.

See BasedBox for variant with a base.

Created with Boxes.py (https://festi.info/boxes.py)
Command line: boxes ClosedBox --FingerJoint_angle=90.0 --FingerJoint_style=rectangular --FingerJoint_surroundingspaces=2.0 --FingerJoint_bottom_lip=0.0 --FingerJoint_edge_width=1.0 --FingerJoint_extra_length=0.0 --FingerJoint_finger=2.0 --FingerJoint_play=0.0 --FingerJoint_space=2.0 --FingerJoint_width=1.0 --x=100.0 --y=150.0 --h=100.0 --outside=0 --outside=1 --thickness=5.0 --format=svg --tabs=0.0 --qr_code=0 --debug=0 --labels=0 --labels=1 --reference=100 --inner_corners=loop --burn=0
Command line short: boxes ClosedBox --y=150.0 --thickness=5.0 --burn=0
Url: http://www.festi.info/boxes.py/ClosedBox?FingerJoint_angle=90.0&amp;FingerJoint_style=rectangular&amp;FingerJoint_surroundingspaces=2.0&amp;FingerJoint_bottom_lip=0.0&amp;FingerJoint_edge_width=1.0&amp;FingerJoint_extra_length=0.0&amp;FingerJoint_finger=2.0&amp;FingerJoint_play=0.0&amp;FingerJoint_space=2.0&amp;FingerJoint_width=1.0&amp;x=100.0&amp;y=150.0&amp;h=100.0&amp;outside=0&amp;outside=1&amp;thickness=5.0&amp;format=svg&amp;tabs=0.0&amp;qr_code=0&amp;debug=0&amp;labels=0&amp;labels=1&amp;reference=100&amp;inner_corners=loop&amp;burn=0&amp;language=fr&amp;render=2
Url short: http://www.festi.info/boxes.py/ClosedBox?y=150.0&amp;thickness=5.0&amp;burn=0
SettingsUrl: http://www.festi.info/boxes.py/ClosedBox?FingerJoint_angle=90.0&amp;FingerJoint_style=rectangular&amp;FingerJoint_surroundingspaces=2.0&amp;FingerJoint_bottom_lip=0.0&amp;FingerJoint_edge_width=1.0&amp;FingerJoint_extra_length=0.0&amp;FingerJoint_finger=2.0&amp;FingerJoint_play=0.0&amp;FingerJoint_space=2.0&amp;FingerJoint_width=1.0&amp;x=100.0&amp;y=150.0&amp;h=100.0&amp;outside=0&amp;outside=1&amp;thickness=5.0&amp;format=svg&amp;tabs=0.0&amp;qr_code=0&amp;debug=0&amp;labels=0&amp;labels=1&amp;reference=100&amp;inner_corners=loop&amp;burn=0&amp;language=fr&amp;render=2
SettingsUrl short: http://www.festi.info/boxes.py/ClosedBox?y=150.0&amp;thickness=5.0&amp;burn=0
</dc:description>
      </cc:Work>
    </rdf:RDF>
  </metadata>
  <g
     id="p-1"
     style="fill:none;stroke-linecap:round;stroke-linejoin:round;">
    <text
       transform="matrix( 1.000 0.000 0.000 1.000 60.400 313.000 )"
       style="font-family: sans-serif ; font-weight: normal; font-style: normal; fill: rgb(255,0,0)"
       font-size="4px"
       text-anchor="middle"
       dominant-baseline="hanging"
       id="text11">Wall 1</text>
    <path
       d="M 15.400 365.000 H 25.400 V 360.000 H 35.400 V 365.000 H 45.400 V 360.000 H 55.400 V 365.000 H 65.400 V 360.000 H 75.400 V 365.000 H 85.400 V 360.000 H 95.400 V 365.000 H 105.400 H 110.400 V 360.000 V 350.000 H 105.400 V 340.000 H 110.400 V 330.000 H 105.400 V 320.000 H 110.400 V 310.000 H 105.400 V 300.000 H 110.400 V 290.000 H 105.400 V 280.000 H 110.400 V 270.000 V 265.000 H 105.400 H 95.400 V 270.000 H 85.400 V 265.000 H 75.400 V 270.000 H 65.400 V 265.000 H 55.400 V 270.000 H 45.400 V 265.000 H 35.400 V 270.000 H 25.400 V 265.000 H 15.400 H 10.400 V 270.000 V 280.000 H 15.400 V 290.000 H 10.400 V 300.000 H 15.400 V 310.000 H 10.400 V 320.000 H 15.400 V 330.000 H 10.400 V 340.000 H 15.400 V 350.000 H 10.400 V 360.000 V 365.000 H 15.400"
       stroke="rgb(0,0,0)"
       stroke-width="0.05"
       id="path13" />
  </g>
  <g
     id="p-2"
     style="fill:none;stroke-linecap:round;stroke-linejoin:round;">
    <text
       transform="matrix( 1.000 0.000 0.000 1.000 187.900 313.000 )"
       style="font-family: sans-serif ; font-weight: normal; font-style: normal; fill: rgb(255,0,0)"
       font-size="4px"
       text-anchor="middle"
       dominant-baseline="hanging"
       id="text16">Wall 2</text>
    <path
       d="M 117.900 365.000 H 132.900 V 360.000 H 142.900 V 365.000 H 152.900 V 360.000 H 162.900 V 365.000 H 172.900 V 360.000 H 182.900 V 365.000 H 192.900 V 360.000 H 202.900 V 365.000 H 212.900 V 360.000 H 222.900 V 365.000 H 232.900 V 360.000 H 242.900 V 365.000 H 257.900 V 360.000 V 350.000 H 262.900 V 340.000 H 257.900 V 330.000 H 262.900 V 320.000 H 257.900 V 310.000 H 262.900 V 300.000 H 257.900 V 290.000 H 262.900 V 280.000 H 257.900 V 270.000 V 265.000 H 242.900 V 270.000 H 232.900 V 265.000 H 222.900 V 270.000 H 212.900 V 265.000 H 202.900 V 270.000 H 192.900 V 265.000 H 182.900 V 270.000 H 172.900 V 265.000 H 162.900 V 270.000 H 152.900 V 265.000 H 142.900 V 270.000 H 132.900 V 265.000 H 117.900 V 270.000 V 280.000 H 112.900 V 290.000 H 117.900 V 300.000 H 112.900 V 310.000 H 117.900 V 320.000 H 112.900 V 330.000 H 117.900 V 340.000 H 112.900 V 350.000 H 117.900 V 360.000 V 365.000"
       stroke="rgb(0,0,0)"
       stroke-width="0.05"
       id="path18" />
  </g>
  <g
     id="p-3"
     style="fill:none;stroke-linecap:round;stroke-linejoin:round;">
    <text
       transform="matrix( 1.000 0.000 0.000 1.000 187.900 210.500 )"
       style="font-family: sans-serif ; font-weight: normal; font-style: normal; fill: rgb(255,0,0)"
       font-size="4px"
       text-anchor="middle"
       dominant-baseline="hanging"
       id="text21">Wall 4</text>
    <path
       d="M 117.900 262.500 H 132.900 V 257.500 H 142.900 V 262.500 H 152.900 V 257.500 H 162.900 V 262.500 H 172.900 V 257.500 H 182.900 V 262.500 H 192.900 V 257.500 H 202.900 V 262.500 H 212.900 V 257.500 H 222.900 V 262.500 H 232.900 V 257.500 H 242.900 V 262.500 H 257.900 V 257.500 V 247.500 H 262.900 V 237.500 H 257.900 V 227.500 H 262.900 V 217.500 H 257.900 V 207.500 H 262.900 V 197.500 H 257.900 V 187.500 H 262.900 V 177.500 H 257.900 V 167.500 V 162.500 H 242.900 V 167.500 H 232.900 V 162.500 H 222.900 V 167.500 H 212.900 V 162.500 H 202.900 V 167.500 H 192.900 V 162.500 H 182.900 V 167.500 H 172.900 V 162.500 H 162.900 V 167.500 H 152.900 V 162.500 H 142.900 V 167.500 H 132.900 V 162.500 H 117.900 V 167.500 V 177.500 H 112.900 V 187.500 H 117.900 V 197.500 H 112.900 V 207.500 H 117.900 V 217.500 H 112.900 V 227.500 H 117.900 V 237.500 H 112.900 V 247.500 H 117.900 V 257.500 V 262.500"
       stroke="rgb(0,0,0)"
       stroke-width="0.05"
       id="path23" />
  </g>
  <g
     id="p-4"
     style="fill:none;stroke-linecap:round;stroke-linejoin:round;">
    <text
       transform="matrix( 1.000 0.000 0.000 1.000 60.400 210.500 )"
       style="font-family: sans-serif ; font-weight: normal; font-style: normal; fill: rgb(255,0,0)"
       font-size="4px"
       text-anchor="middle"
       dominant-baseline="hanging"
       id="text26">Wall 3</text>
    <path
       d="M 15.400 262.500 H 25.400 V 257.500 H 35.400 V 262.500 H 45.400 V 257.500 H 55.400 V 262.500 H 65.400 V 257.500 H 75.400 V 262.500 H 85.400 V 257.500 H 95.400 V 262.500 H 105.400 H 110.400 V 257.500 V 247.500 H 105.400 V 237.500 H 110.400 V 227.500 H 105.400 V 217.500 H 110.400 V 207.500 H 105.400 V 197.500 H 110.400 V 187.500 H 105.400 V 177.500 H 110.400 V 167.500 V 162.500 H 105.400 H 95.400 V 167.500 H 85.400 V 162.500 H 75.400 V 167.500 H 65.400 V 162.500 H 55.400 V 167.500 H 45.400 V 162.500 H 35.400 V 167.500 H 25.400 V 162.500 H 15.400 H 10.400 V 167.500 V 177.500 H 15.400 V 187.500 H 10.400 V 197.500 H 15.400 V 207.500 H 10.400 V 217.500 H 15.400 V 227.500 H 10.400 V 237.500 H 15.400 V 247.500 H 10.400 V 257.500 V 262.500 H 15.400"
       stroke="rgb(0,0,0)"
       stroke-width="0.05"
       id="path28" />
  </g>
  <g
     id="p-5"
     style="fill:none;stroke-linecap:round;stroke-linejoin:round;">
    <text
       transform="matrix( 1.000 0.000 0.000 1.000 60.400 83.000 )"
       style="font-family: sans-serif ; font-weight: normal; font-style: normal; fill: rgb(255,0,0)"
       font-size="4px"
       text-anchor="middle"
       dominant-baseline="hanging"
       id="text31">Top</text>
    <path
       d="M 15.400 155.000 H 25.400 V 160.000 H 35.400 V 155.000 H 45.400 V 160.000 H 55.400 V 155.000 H 65.400 V 160.000 H 75.400 V 155.000 H 85.400 V 160.000 H 95.400 V 155.000 H 105.400 V 140.000 H 110.400 V 130.000 H 105.400 V 120.000 H 110.400 V 110.000 H 105.400 V 100.000 H 110.400 V 90.000 H 105.400 V 80.000 H 110.400 V 70.000 H 105.400 V 60.000 H 110.400 V 50.000 H 105.400 V 40.000 H 110.400 V 30.000 H 105.400 V 15.000 H 95.400 V 10.000 H 85.400 V 15.000 H 75.400 V 10.000 H 65.400 V 15.000 H 55.400 V 10.000 H 45.400 V 15.000 H 35.400 V 10.000 H 25.400 V 15.000 H 15.400 V 30.000 H 10.400 V 40.000 H 15.400 V 50.000 H 10.400 V 60.000 H 15.400 V 70.000 H 10.400 V 80.000 H 15.400 V 90.000 H 10.400 V 100.000 H 15.400 V 110.000 H 10.400 V 120.000 H 15.400 V 130.000 H 10.400 V 140.000 H 15.400 V 155.000"
       stroke="rgb(0,0,0)"
       stroke-width="0.05"
       id="path33" />
  </g>
  <rect
     style="fill:#000000;fill-opacity:1;stroke-width:2.85461;stroke-dasharray:none;paint-order:markers fill stroke"
     id="rect4276"
     width="55"
     height="18"
     x="33.045834"
     y="234.38336" />
  <g
     id="p-6"
     style="fill:none;stroke-linecap:round;stroke-linejoin:round;">
    <text
       transform="matrix( 1.000 0.000 0.000 1.000 162.900 83.000 )"
       style="font-family: sans-serif ; font-weight: normal; font-style: normal; fill: rgb(255,0,0)"
       font-size="4px"
       text-anchor="middle"
       dominant-baseline="hanging"
       id="text36">Bottom</text>
    <path
       d="M 117.900 155.000 H 127.900 V 160.000 H 137.900 V 155.000 H 147.900 V 160.000 H 157.900 V 155.000 H 167.900 V 160.000 H 177.900 V 155.000 H 187.900 V 160.000 H 197.900 V 155.000 H 207.900 V 140.000 H 212.900 V 130.000 H 207.900 V 120.000 H 212.900 V 110.000 H 207.900 V 100.000 H 212.900 V 90.000 H 207.900 V 80.000 H 212.900 V 70.000 H 207.900 V 60.000 H 212.900 V 50.000 H 207.900 V 40.000 H 212.900 V 30.000 H 207.900 V 15.000 H 197.900 V 10.000 H 187.900 V 15.000 H 177.900 V 10.000 H 167.900 V 15.000 H 157.900 V 10.000 H 147.900 V 15.000 H 137.900 V 10.000 H 127.900 V 15.000 H 117.900 V 30.000 H 112.900 V 40.000 H 117.900 V 50.000 H 112.900 V 60.000 H 117.900 V 70.000 H 112.900 V 80.000 H 117.900 V 90.000 H 112.900 V 100.000 H 117.900 V 110.000 H 112.900 V 120.000 H 117.900 V 130.000 H 112.900 V 140.000 H 117.900 V 155.000"
       stroke="rgb(0,0,0)"
       stroke-width="0.05"
       id="path38" />
  </g>
  <g
     id="g1068"
     transform="rotate(-90,82.552434,75.232872)">
    <circle
       r="2"
       cy="-68.043434"
       cx="136.20958"
       id="circle1085"
       style="fill:#ff0000;fill-opacity:1;stroke:none;stroke-width:0.4;stroke-miterlimit:4.37037;stroke-dasharray:none;stroke-opacity:1"
       transform="rotate(90)" />
    <circle
       style="fill:#ff0000;fill-opacity:1;stroke:none;stroke-width:0.4;stroke-miterlimit:4.37037;stroke-dasharray:none;stroke-opacity:1"
       id="circle1087"
       cx="174.30959"
       cy="-68.043434"
       r="2"
       transform="rotate(90)" />
    <circle
       style="fill:#ff0000;fill-opacity:1;stroke:none;stroke-width:0.4;stroke-miterlimit:4.37037;stroke-dasharray:none;stroke-opacity:1"
       id="circle1089"
       cx="131.1096"
       cy="-5.8436375"
       r="2"
       transform="rotate(90)" />
    <circle
       style="fill:#ff0000;fill-opacity:1;stroke:none;stroke-width:0.4;stroke-miterlimit:4.37037;stroke-dasharray:none;stroke-opacity:1"
       id="ellipse1091"
       cx="179.80959"
       cy="-5.8432102"
       transform="rotate(90)"
       r="2" />
  </g>
  <rect
     style="fill:#000000;fill-opacity:1;stroke-width:1.11859;stroke-dasharray:none;paint-order:markers fill stroke"
     id="rect314"
     width="24.5"
     height="71.5"
     x="23.743959"
     y="48.986645" />
  <circle
     style="fill:#000000;fill-opacity:1;stroke-width:0.48;stroke-dasharray:none;paint-order:markers fill stroke"
     id="path3522"
     cx="81.887955"
     cy="108.88664"
     r="12" />
  <circle
     style="fill:#000000;fill-opacity:1;stroke-width:0.616023;stroke-dasharray:none;paint-order:markers fill stroke"
     id="path4250"
     cx="80.719116"
     cy="55.086639"
     r="6.0999999" />
</svg>
